<?xml version="1.0" standalone="no"?>
<!DOCTYPE svg PUBLIC "-//W3C//DTD SVG 20010904//EN"
 "http://www.w3.org/TR/2001/REC-SVG-20010904/DTD/svg10.dtd">
<svg version="1.0" xmlns="http://www.w3.org/2000/svg"
 width="300.000000pt" height="300.000000pt" viewBox="0 0 300.000000 300.000000"
 preserveAspectRatio="xMidYMid meet">
<metadata>
Created by potrace 1.10, written by Peter Selinger 2001-2011
</metadata>
<g transform="translate(0.000000,300.000000) scale(0.100000,-0.100000)"
fill="#000000" stroke="none">
<path d="M1650 2943 c-265 -18 -351 -37 -440 -98 -101 -68 -234 -210 -269
-286 -35 -75 -92 -260 -116 -374 -35 -171 -29 -462 14 -647 29 -122 98 -348
113 -367 22 -27 41 -39 100 -61 146 -53 420 -76 719 -60 330 17 493 49 644
125 107 54 172 107 223 184 51 75 60 98 149 371 68 210 76 244 77 315 1 74 -2
88 -48 193 -58 137 -83 168 -138 179 -40 8 -40 9 -67 88 -37 109 -65 159 -103
188 -88 66 -473 229 -584 247 -55 9 -170 11 -274 3z m413 -211 c286 -120 293
-126 383 -309 54 -109 89 -153 123 -153 10 0 25 -22 40 -56 14 -31 40 -74 58
-97 40 -47 39 -60 -13 -182 -19 -43 -48 -133 -65 -200 -45 -174 -83 -266 -128
-313 -161 -166 -402 -215 -956 -194 -236 8 -277 12 -326 31 -117 45 -145 109
-184 421 -13 100 -16 180 -12 310 4 155 8 189 36 293 17 65 45 153 63 195 27
67 42 88 116 160 145 140 221 163 527 159 l190 -3 148 -62z"/>
<path d="M482 1213 c-38 -19 -94 -80 -193 -214 -56 -76 -69 -99 -69 -130 0
-63 74 -109 130 -79 17 9 202 230 243 290 24 35 22 84 -5 113 -30 33 -66 40
-106 20z"/>
<path d="M853 944 c-32 -16 -59 -52 -122 -166 -18 -32 -68 -104 -113 -160
-100 -128 -113 -156 -94 -201 8 -21 25 -38 45 -46 49 -21 85 0 119 66 15 29
83 126 151 214 68 89 128 176 134 195 13 44 -5 82 -50 101 -39 16 -31 16 -70
-3z"/>
<path d="M1245 740 c-32 -12 -42 -29 -76 -126 -56 -159 -122 -283 -184 -343
-45 -44 -55 -60 -55 -86 0 -47 8 -64 41 -80 48 -26 76 -19 130 32 43 40 66 78
160 269 120 245 127 273 83 318 -27 26 -61 32 -99 16z"/>
</g>
</svg>
